<svg xmlns="http://www.w3.org/2000/svg" width="468" height="500" viewBox="-10 -258 468 500"><path d="M112-248c9 0 16 7 16 16v48h192v-48c0-9 7-16 16-16s16 7 16 16v48h32c35 0 64 29 64 64v288c0 35-29 64-64 64H64c-35 0-64-29-64-64v-288c0-35 29-64 64-64h32v-48c0-9 7-16 16-16zm272 96H64c-18 0-32 14-32 32v32h384v-32c0-18-14-32-32-32zm32 96h-96V8h96v-64zm0 96h-96v64h96V40zm0 96h-96v64h64c18 0 32-14 32-32v-32zm-128-32V40H160v64h128zm-128 32v64h128v-64H160zm-32-32V40H32v64h96zm-96 32v32c0 18 14 32 32 32h64v-64H32zM32 8h96v-64H32V8zm128 0h128v-64H160V8z" fill="#1e3050"/></svg>