<svg xmlns="http://www.w3.org/2000/svg" width="380" height="506" viewBox="-10 -224 380 506"><path d="M180-106c-40 0-72 32-72 72s32 72 72 72 72-32 72-72-32-72-72-72zm36 72c0 20-16 36-36 36s-36-16-36-36 16-36 36-36 36 16 36 36zm-36-180C81-214 0-133 0-34 0 30 26 92 55 142c30 51 64 91 81 111 12 13 28 19 44 19s32-6 44-19c18-20 51-60 81-111 29-50 55-112 55-176 0-99-81-180-180-180zM36-34c0-79 65-144 144-144 80 0 144 65 144 144 0 55-22 110-50 158s-60 86-77 105c-4 4-10 7-17 7s-13-3-17-7c-17-19-49-57-77-105C59 76 36 20 36-34z" fill="#1e3050"/></svg>