<svg xmlns="http://www.w3.org/2000/svg" width="518" height="494" viewBox="-7 -242 518 494"><path d="M185-187c11-27 38-45 67-45 30 0 56 18 67 45l30 74 79 6c30 2 55 21 64 49s0 59-23 78l-61 51 20 77c7 29-4 59-28 76s-56 18-80 3l-68-43-67 43c-25 15-57 14-81-3s-35-47-27-76l19-77-61-51C12 1 3-30 13-58c9-28 34-47 63-49l80-6 29-74zm67-9c-14 0-28 9-33 23l-34 84c-3 7-9 11-15 11l-91 6c-15 1-28 11-32 25-5 14 0 30 11 39l70 58c5 5 8 12 6 19l-22 88c-4 14 1 29 13 38 12 8 28 9 41 1l77-48c5-4 13-4 19 0l77 48c12 8 28 7 40-1 12-9 17-24 14-38l-23-88c-1-7 1-14 6-19l70-58c12-9 16-25 12-39-5-14-18-24-32-25l-91-6c-7 0-13-4-16-11l-33-84c-6-14-19-23-34-23z" fill="#1e3050"/></svg>