<svg xmlns="http://www.w3.org/2000/svg" width="532" height="532" viewBox="-10 -258 532 532"><path d="M256 264c-9 0-16-7-16-16v-72c0-9 7-16 16-16s16 7 16 16v72c0 9-7 16-16 16zm0-408c-9 0-16-7-16-16v-72c0-9 7-16 16-16s16 7 16 16v72c0 9-7 16-16 16zm181 333c-6 6-16 6-23 0l-50-51c-7-6-7-16 0-22 6-7 16-7 22 0l51 50c6 7 6 17 0 23zM149-99c-7 6-17 6-23 0l-51-51c-6-7-6-17 0-23s16-6 23 0l51 51c6 6 6 16 0 23zM496 24h-72c-9 0-16-7-16-16s7-16 16-16h72c9 0 16 7 16 16s-7 16-16 16zM88 24H16C7 24 0 17 0 8S7-8 16-8h72c9 0 16 7 16 16s-7 16-16 16zm349-197c6 6 6 16 0 23l-51 51c-6 6-16 6-22 0-7-7-7-17 0-23l50-51c7-6 17-6 23 0zM149 116c6 6 6 16 0 22l-51 51c-7 6-17 6-23 0s-6-16 0-23l51-50c6-7 16-7 23 0zM336 8c0-44-36-80-80-80s-80 36-80 80 36 80 80 80 80-36 80-80zM144 8c0-62 50-112 112-112S368-54 368 8s-50 112-112 112S144 70 144 8z" fill="#1e3050"/></svg>