<svg xmlns="http://www.w3.org/2000/svg" width="596" height="532" viewBox="-10 -258 596 532"><path d="M208-40c44 0 80-36 80-80s-36-80-80-80-80 36-80 80 36 80 80 80zm0-208c71 0 128 57 128 128S279 8 208 8 80-49 80-120s57-128 128-128zm-32 352c-71 0-128 57-128 128v8c0 13-11 24-24 24S0 253 0 240v-8C0 135 79 56 176 56h64c97 0 176 79 176 176v8c0 13-11 24-24 24s-24-11-24-24v-8c0-71-57-128-128-128h-64zM343-7c11-13 19-26 26-41 9 5 20 8 31 8 35 0 64-29 64-64s-29-64-64-64c-8 0-15 1-22 4-4-16-10-31-18-45 13-4 26-7 40-7 62 0 112 50 112 112S462 8 400 8c-21 0-40-6-57-15zm93 130c-11-19-24-36-39-51h11c93 0 168 75 168 168 0 13-11 24-24 24s-24-11-24-24c0-57-39-104-92-117z" fill="#1e3050"/></svg>