<svg xmlns="http://www.w3.org/2000/svg" width="596" height="340" viewBox="-10 -162 596 340"><path d="M512-104H64c-9 0-16 7-16 16v192c0 9 7 16 16 16h118c4 0 8-2 11-5l34-34c16-16 38-25 61-25s45 9 61 25l34 34c3 3 7 5 12 5h117c9 0 16-7 16-16V-88c0-9-7-16-16-16zM64-152h448c35 0 64 29 64 64v192c0 35-29 64-64 64H395c-17 0-34-7-46-19l-34-34c-7-7-17-11-27-11s-20 4-27 11l-34 34c-12 12-28 19-45 19H64c-35 0-64-29-64-64V-88c0-35 29-64 64-64zM112 0c0-31 25-56 56-56s56 25 56 56-25 56-56 56-56-25-56-56zm296-56c31 0 56 25 56 56s-25 56-56 56-56-25-56-56 25-56 56-56z" fill="#1e3050"/></svg>